<?xml version="1.0" standalone="no"?><!DOCTYPE svg PUBLIC "-//W3C//DTD SVG 1.1//EN" "http://www.w3.org/Graphics/SVG/1.1/DTD/svg11.dtd"><svg t="1730542188983" class="icon" viewBox="0 0 1024 1024" version="1.1" xmlns="http://www.w3.org/2000/svg" p-id="15606" xmlns:xlink="http://www.w3.org/1999/xlink" width="200" height="200"><path d="M293.3 958.8c-24.7 0-44.6-20-44.6-44.6V443.8c0-24.7 20-44.6 44.6-44.6 24.7 0 44.6 20 44.6 44.6v470.3c0 24.7-20 44.7-44.6 44.7zM743.1 958.8c-24.7 0-44.6-20-44.6-44.6V443.8c0-24.7 20-44.6 44.6-44.6s44.6 20 44.6 44.6v470.3c0.1 24.7-19.9 44.7-44.6 44.7zM293.3 343.1c-24.7 0-44.6-20-44.6-44.6v-188c0-24.7 20-44.6 44.6-44.6 24.7 0 44.6 20 44.6 44.6v188c0 24.6-20 44.6-44.6 44.6z" fill="#333333" p-id="15607"></path><path d="M293.3 488.5C185.6 488.5 98 400.9 98 293.2V110.5c0-24.7 20-44.6 44.6-44.6s44.6 20 44.6 44.6v182.7c0 58.4 47.5 106 106 106s106-47.5 106-106V110.5c0-24.7 20-44.6 44.6-44.6s44.6 20 44.6 44.6v182.7c0.1 107.7-87.5 195.3-195.1 195.3zM743.1 488.5c-115.8 0-184.9-63.8-184.9-170.6 0-121.4 57.9-252 184.9-252 112.3 0 184.9 98.9 184.9 252 0 106.8-69.1 170.6-184.9 170.6z m0-333.3c-70.1 0-95.6 97.3-95.6 162.7 0 37.9 10.9 81.3 95.6 81.3s95.6-43.5 95.6-81.3c0-16.7-2.7-162.7-95.6-162.7z" fill="#333333" p-id="15608"></path></svg>